<svg width="91" height="91" xmlns="http://www.w3.org/2000/svg">

 <g>
  <title>background</title>
  <rect fill="none" id="canvas_background" height="402" width="582" y="-1" x="-1"/>
 </g>
 <g>
  <title>Layer 1</title>
  <path id="svg_3" fill="#B0E0D4" d="m74.778,8.822266l0.108,70.093c0,4.529 -3.705,8.23 -8.234,8.23l-48.888,0l0,-78.323l57.014,0z"/>
  <path id="svg_4" fill="#454B53" d="m66.652,89.855l-48.888,0c-1.388,0 -2.513,-1.125 -2.513,-2.514l0,-78.322c0,-1.388 1.125,-2.513 2.513,-2.513l57.015,0c1.386,0 2.511,1.123 2.513,2.509l0.107,70.093c-0.001,5.927 -4.821,10.747 -10.747,10.747zm-46.376,-5.025l46.376,0c3.154,0 5.721,-2.565 5.721,-5.719l-0.104,-67.58l-51.993,0l0,73.299z"/>
  <path id="svg_5" fill="#454B53" d="m62.279,50.237266l-31.408,0c-1.387,0 -2.512,-1.125 -2.512,-2.512c0,-1.389 1.125,-2.514 2.512,-2.514l31.408,0c1.387,0 2.512,1.125 2.512,2.514c0,1.387 -1.125,2.512 -2.512,2.512z"/>
  <path id="svg_6" fill="#454B53" d="m62.279,35.897266l-31.408,0c-1.387,0 -2.512,-1.125 -2.512,-2.513s1.125,-2.513 2.512,-2.513l31.408,0c1.387,0 2.512,1.125 2.512,2.513s-1.125,2.513 -2.512,2.513z"/>
  <path id="svg_7" fill="#454B53" d="m39.585,64.592l-8.714,0c-1.387,0 -2.512,-1.125 -2.512,-2.512c0,-1.389 1.125,-2.514 2.512,-2.514l8.714,0c1.388,0 2.513,1.125 2.513,2.514c0,1.387 -1.125,2.512 -2.513,2.512z"/>
  <path id="svg_8" fill="#454B53" d="m54.422,64.592l-3.687,0c-1.388,0 -2.513,-1.125 -2.513,-2.512c0,-1.389 1.125,-2.514 2.513,-2.514l3.687,0c1.389,0 2.514,1.125 2.514,2.514c0,1.387 -1.125,2.512 -2.514,2.512z"/>
  <path id="svg_9" fill="#454B53" d="m28.895,15.935c-1.389,0 -2.514,-1.125 -2.514,-2.513l0,-9.89c0,-1.388 1.125,-2.513 2.514,-2.513c1.387,0 2.512,1.125 2.512,2.513l0,9.89c-0.001,1.388 -1.126,2.513 -2.512,2.513z"/>
  <path id="svg_10" fill="#454B53" d="m46.319,15.935c-1.388,0 -2.513,-1.125 -2.513,-2.513l0,-9.89c0,-1.388 1.125,-2.513 2.513,-2.513s2.513,1.125 2.513,2.513l0,9.89c0,1.388 -1.125,2.513 -2.513,2.513z"/>
  <path id="svg_11" fill="#454B53" d="m63.746,15.935c-1.388,0 -2.513,-1.125 -2.513,-2.513l0,-9.89c0,-1.388 1.125,-2.513 2.513,-2.513s2.513,1.125 2.513,2.513l0,9.89c0,1.388 -1.125,2.513 -2.513,2.513z"/>
 </g>
</svg>