<?xml version="1.0" ?><svg data-name="Layer 1" id="Layer_1" viewBox="0 0 512 512" xmlns="http://www.w3.org/2000/svg"><title/><path d="M342.64,420.88c10.35-3,19.88-6.35,28.91-9.82a121.38,121.38,0,0,1-3,12.86,331.44,331.44,0,0,1-32.44,11.23A334.57,334.57,0,0,1,256,448h0a334.56,334.56,0,0,1-80.07-12.86,331.44,331.44,0,0,1-32.44-11.23,121.38,121.38,0,0,1-3-12.86c9,3.47,18.56,6.83,28.91,9.82A361.93,361.93,0,0,0,256,434.79h0A361.93,361.93,0,0,0,342.64,420.88Zm45.09-27.45a388.18,388.18,0,0,1-38,13.14A391.64,391.64,0,0,1,256,421.62h0a391.64,391.64,0,0,1-93.73-15.05,388.18,388.18,0,0,1-38-13.14c-3.68-12.46-8.11-33.11-3.74-57.29C133.62,263.7,212,222.65,243.87,208.73a15.75,15.75,0,0,1,1.52-21.11,13.13,13.13,0,0,1,6.89-19.7c-1.37,0-2.42-.1-2.85-.17A52.1,52.1,0,0,1,254.92,64a39.88,39.88,0,1,0,53.58,47.22,52.27,52.27,0,0,1-41.83,56.24,43.91,43.91,0,0,1-6,.46,13.13,13.13,0,0,1,6.9,19.7A15.74,15.74,0,0,1,268.81,209c32.24,14.2,109.65,55.17,122.65,127.11C395.84,360.32,391.41,381,387.73,393.43ZM250.82,157.3c.55,0,2.59.13,5.69.13a65.11,65.11,0,0,0,8.12-.33,41.81,41.81,0,0,0,16.08-6.91l-.76.16a50.41,50.41,0,0,1-59.33-39.64,50.15,50.15,0,0,1-.74-14.56,41.48,41.48,0,0,0,30.94,61.14Zm5.64,25.8a2.69,2.69,0,1,0-2.69-2.7A2.7,2.7,0,0,0,256.46,183.11ZM255,204.17l1-.39h0l1.34.51a5.35,5.35,0,0,0,4.52-5.23,5.41,5.41,0,0,0-10.83,0A5.35,5.35,0,0,0,255,204.17ZM381.09,338C367.76,264.25,277.83,223.87,256,215.09,234.17,223.87,144.24,264.25,130.91,338A111.27,111.27,0,0,0,133,385.57c10.53,4.1,21.32,7.75,32.13,10.87A381.71,381.71,0,0,0,255,411l1-.23,1,.23a381.7,381.7,0,0,0,89.83-14.59c10.81-3.12,21.6-6.78,32.13-10.87A111.27,111.27,0,0,0,381.09,338Zm-18.18-1.44c3.45,19.09,0,35.38-3,45.22a306.2,306.2,0,0,1-30,10.37A309.08,309.08,0,0,1,256,404h0a309.08,309.08,0,0,1-74-11.88,306.2,306.2,0,0,1-30-10.37c-2.91-9.83-6.4-26.13-3-45.22C161.31,268.94,245.71,236,256,232.11h0C266.29,236,350.69,268.94,362.92,336.58Zm-10.37,1.87c-10.15-56.15-78.06-87.47-96.47-95l-.07,0-.07,0c-18.42,7.52-86.33,38.84-96.47,95a85.25,85.25,0,0,0,1.38,35.48c7.91,3,16,5.76,24.1,8.1a299,299,0,0,0,70.22,11.42l.83-.17.84.17A299,299,0,0,0,327.07,382c8.1-2.34,16.18-5.06,24.1-8.1A85.25,85.25,0,0,0,352.54,338.45Z"/></svg>